<svg version="1.1" xmlns="http://www.w3.org/2000/svg" viewBox="0 0 1916.2444960440312 1691.096680226053">
  <defs>
    <style>
      @font-face {
        font-family: "Virgil";
        src: url("https://excalidraw.com/FG_Virgil.ttf");
      }
      @font-face {
        font-family: "Cascadia";
        src: url("https://excalidraw.com/Cascadia.ttf");
      }
    </style>
  </defs>
  <g transform="translate(1672.911162710698 1105.861145424581)"><path d="M20.743679485259825 44.53246533702312 C20.743679485259825 44.53246533702312, 20.743679485259825 44.53246533702312, 20.743679485259825 44.53246533702312 M20.743679485259825 44.53246533702312 C20.743679485259825 44.53246533702312, 20.743679485259825 44.53246533702312, 20.743679485259825 44.53246533702312 M15.27227993336486 60.82561795070254 C18.733837222441974 54.32018141173403, 24.351925504589985 42.86402270594344, 40.04155985050607 30.43306893879632 M15.749708893047444 58.798930788705576 C22.010930639553628 48.616572483302164, 26.38489476802469 41.67589433968105, 38.64362766564596 30.848573556412855 M10.83249970075244 71.79502963246372 C21.28435707409576 57.51136293327777, 36.28815380290689 41.30188873946406, 51.97407507024808 16.313125829551858 M10.818108146232905 69.10030142003265 C24.26127961009162 50.820876468300405, 40.8008761171425 31.658390508560544, 54.15657464474542 19.750086390752834 M10.950911021903636 81.56824717136669 C26.178163680484488 60.08203314999898, 42.99909471573115 42.94560205711598, 65.00721292122759 16.149194995923793 M9.283598565608742 78.72866936052787 C30.62708168778904 54.067390134368296, 48.75922537729413 30.410572444408928, 61.80319669954039 15.082157933204329 M5.850461480687919 86.32867941593557 C26.197533084836845 57.61337104718241, 49.07843389277598 35.34694120189819, 67.53683767217167 14.284510333094666 M7.125292285825672 83.68647422043412 C21.916231921205938 67.84439730887443, 35.955836338450474 52.09844662744475, 68.70622577453919 13.817599715668628 M9.08517505592728 93.74790606358059 C27.58373804187228 69.66347847143574, 42.22259011644354 51.70377735430573, 77.88612260988333 11.23670112802921 M6.295955961486939 91.35299833388038 C24.64099321239907 69.38691274481499, 46.292692024348156 46.21760293099911, 74.87078095732608 9.679790536829216 M1.0409160054342337 101.8795159814893 C23.426976284259435 76.99027808412865, 38.94838733281739 63.49563081119673, 83.02296324217508 6.289824997914927 M6.035274651186306 100.56570507977295 C19.724471105194315 78.93328285719072, 37.820929487345865 58.05822748819802, 85.71428168149481 6.922209400592344 M6.404329837021251 103.78881678684917 C29.378948068652228 87.55963236784379, 45.09199796806328 62.39896868456826, 89.3410363268594 4.6146583099393155 M2.1512927885174946 105.43744846201804 C37.21407966424242 67.04101020659107, 70.01415361823679 32.03931826661312, 90.66000675563912 4.63622593586426 M-0.36821572048966544 112.1825444270705 C29.221413981369153 82.3030351284846, 55.02405768717892 54.9478020463936, 94.16056375578675 8.16253450218096 M0.301855153083757 113.17368268974471 C27.071169501061288 85.8128103275016, 54.58783056633427 52.64397277971214, 96.45035824739072 6.832438717442301 M4.32284151465705 117.24618653800414 C21.02634895354828 90.49970330716108, 43.971344458609984 73.23364849884345, 104.38207993172222 5.729119540713519 M5.180579102421909 117.09728553552256 C33.891846302967025 84.92545725760482, 61.91134340800444 53.25553171735413, 101.61312886029594 5.691950723118872 M2.880136626330824 124.85846446817422 C48.47060323631831 77.75048496645027, 87.51386693768771 29.64747700020473, 108.11448730449723 4.904765203170008 M5.989233021182628 124.05054035959446 C37.972757232919676 89.21723024739299, 70.51903563345363 51.968919877152075, 105.90205746996747 4.70422261724574 M3.0994991513346832 130.12685125454547 C42.71454769790858 85.4222464714056, 77.15716537716185 50.22439688866895, 116.01670568990535 7.647703696292403 M4.840357871950189 127.11815408564391 C30.99362018388787 102.25983665211008, 51.516283950070026 74.42064882867706, 111.45097844298012 7.427767368283632 M11.702539876471626 130.5455386840826 C38.84918150405057 94.20453795249168, 76.47810967154318 46.487995276018964, 114.83025906676855 3.442014717490963 M6.102353992308842 131.97272426235435 C42.86316786135596 94.68918778484698, 74.95329067670492 55.14432079105403, 118.1189084339371 5.835617310361556 M6.493473751573134 140.1345660344187 C48.631886730388665 83.6350143219267, 96.52150083447864 32.756065502816426, 127.4724526639088 6.908496714175982 M10.368804007871319 138.20136780407762 C55.93658765094558 84.18963337749676, 98.19053292662318 32.6170176890371, 123.39572347244163 7.113695402608556 M7.076533092432726 144.0318530122957 C47.987154947363074 95.33785590125558, 95.1739843997882 47.11901513075425, 133.12955004711964 3.4155381430893783 M8.988386035212386 143.08525392927442 C53.46327079265282 93.33122461716277, 96.72201683042886 42.048385126930086, 128.30783605006852 6.459186488485301 M11.732495348881898 148.40587639534664 C40.81741740941449 105.9307334044241, 71.13156284429314 77.05406278868321, 136.78935991623257 2.237084531864241 M10.753901449944792 146.69978080229652 C46.16420486257343 110.90157873267327, 80.07899428108917 68.48010411489345, 134.7632819174305 5.426004357343629 M12.136096307723633 151.04770297053625 C48.085953351007284 107.69952192972318, 83.91388326005332 68.72778594058008, 139.95864930805055 3.1446714174652755 M12.432188089652769 151.6941084718274 C60.46815431054537 98.22052356089144, 104.13908416063423 43.51294289875173, 138.0816332871118 5.7043246828669965 M14.168912034751486 154.7554086946065 C44.64682777631878 113.33977532452094, 83.73111547041918 72.16830992080335, 147.5078484513956 8.055972247302734 M13.38950219591112 155.8630780313278 C46.85842255081596 116.38436759542294, 78.78063815112432 77.28658897957237, 141.65120368871567 5.9566329241844045 M20.764063729796902 154.9826265951904 C66.08100446518887 101.77180577811824, 113.22397328105896 48.913297904430124, 144.42028688307076 5.890960058341378 M18.248723269332544 156.98325952014946 C48.20535225162017 117.06193864562415, 80.09642485421152 81.65416180000855, 147.4907840848264 9.861386004979366 M18.14500367794988 163.02022305078768 C48.920530876321024 126.39764769593985, 76.03493384937164 97.44781682218486, 151.32216975788342 7.709781341339093 M20.656343933303287 163.16566361519602 C67.0153223527381 103.56424795566821, 115.97778611906101 48.91627499164638, 151.56466726833423 10.160906711822532 M23.572409298003684 167.857695031406 C54.17667238077203 124.32980677313859, 88.8804336070121 87.27603020975891, 153.97326728753308 13.315162681268372 M20.616399140710385 164.3999427265417 C61.16771617000254 123.38420854533179, 100.1401231211791 78.0457960180942, 155.08974854776028 11.99621750842238 M23.046795957113957 170.97324052543976 C71.56649739428764 111.61219692267626, 113.40167892138419 66.6236205965808, 156.99219075030774 11.55690109748283 M23.358774774003553 168.5962738030197 C63.40788760039783 119.2049651072287, 104.97492842165848 71.5654347058485, 161.8633108487634 10.915840850900622 M29.690835729739778 173.20720650964682 C84.32857891623345 106.1577586934872, 138.14458896946195 49.56933401178391, 161.07394127150496 15.34835102856338 M28.28332847013052 172.55607951114544 C69.54285522747799 119.76338019570983, 113.87996127592167 70.93152084203781, 162.99542519943577 11.529922576024163 M28.63108530334777 174.0603381051077 C67.95229013713654 128.81207569196775, 108.57505457308226 81.01410611641155, 171.65846378757783 12.595927200783642 M29.309175047749562 174.6769997239585 C65.94632059755928 137.74745648230066, 98.79263770167904 101.24594945873068, 170.034374643174 14.689898484324663 M33.05694436766729 174.55344543530111 C69.1184399642084 143.0851112358659, 94.34751021969024 107.87748371529656, 176.17269183830442 12.265382644604724 M31.671317171554175 178.80251785902854 C63.68584589966458 140.23804126599282, 95.94056880580972 105.18830018348761, 172.34575453956901 16.763339388708758 M33.722357352182826 179.83191134774896 C68.22212709555542 145.09363590906491, 107.57047008247523 102.15818910896716, 175.55090021923755 14.33753912692003 M34.781594103949324 182.07370786842856 C69.35507985858685 143.37457384400668, 102.98837134131055 106.44141114866382, 179.0133241983127 16.13385706252389 M36.00143971734253 185.0761383346845 C66.72543943089872 146.9538936018068, 99.07041596536455 108.38993457417912, 181.91138063037963 21.663579728395685 M37.53413051456437 182.9742750299157 C76.62943482121958 137.97392362511044, 115.97103004940935 92.08822057626354, 179.90730684673977 17.151529649101843 M37.90064151154003 185.27127442472397 C97.66319861136625 125.32173717991247, 151.36775518088365 61.228642065682024, 186.30099305820596 23.38015571642255 M38.90010947344556 186.58507956681893 C93.53638048714066 127.90342085457182, 147.81847961970337 63.58677746030752, 182.79913750937538 21.319582115856644 M44.51586076405339 190.33118369892424 C75.81448240344703 146.22314988669456, 115.57555208175475 103.85076109688991, 185.64269022735562 27.109635321305646 M45.214363197045415 189.73013305694948 C73.55248487335476 154.15485516225525, 105.17812646323847 116.16152060284627, 186.25847352502396 24.302064270575734 M44.93177880506215 194.56836881466148 C103.61726071739102 126.41953942938441, 160.07611357359033 62.62733055339172, 189.812384280135 25.076582217117974 M45.18591928463473 191.30002466256323 C93.04285825231413 144.60520828409466, 131.7853181613307 97.41243308525235, 190.06514460914497 24.651374256781843 M52.70834437112023 192.85215360519751 C99.41905271187787 130.6195560086567, 153.93690781538217 67.47976263536867, 191.59217250672737 26.01967803918986 M50.223437637075875 192.12351615016584 C99.92555525523785 137.3815991486967, 152.01837948783583 76.42163726609411, 194.486059492074 27.23847890655682 M50.36814127907572 196.98354910725877 C99.7270925316627 138.48705748428333, 148.13757146981402 86.44499117175431, 196.29934536533747 34.26066918954668 M54.414150158588726 196.73385847967506 C82.09976302448155 162.65711759116417, 109.68537216435446 131.6866574997201, 195.0088410053372 30.29126761652027 M59.09054316932078 194.775089128908 C93.52583160466973 161.66146949260707, 131.55583785171976 120.44689907779208, 198.63381102311868 32.895715111320534 M55.32412777475556 197.80055567120078 C93.90346468836066 154.18788756218905, 132.76055138914734 110.61218603292573, 199.03181531802286 35.739855231454634 M62.88089909136994 200.50189676474236 C112.0131524910673 138.23214883378773, 168.5237028242362 78.05687014700781, 201.0696053455001 36.39642396667594 M59.835057812310765 201.4925072991067 C96.07877556303308 157.5750068405477, 131.99883912508992 113.38427513100679, 202.3321404537402 36.678889825513906 M61.104704442911654 203.68266141657446 C114.82516203691982 135.68190695726435, 173.3321859513407 79.6660502334712, 201.32318192011004 42.79922534539099 M63.39451615457775 201.7209792508744 C106.62761244706265 151.03450161836938, 148.2917734504643 101.11871051410063, 205.9560891963139 38.523042982077435 M68.95689018298091 205.11639390091474 C117.93045759363049 139.1164179674843, 175.88946865392535 84.56833339897527, 210.8322627388334 44.44641832271272 M65.86236479470088 205.0263410355702 C99.5514340899387 168.20610696532225, 133.0650143470464 127.05964329983121, 206.58798605074833 42.96052296803481 M73.34270549154449 207.33390077457165 C99.96953045946043 168.98054649168512, 133.32550481570632 134.1825863342889, 210.43039423838934 46.153009769346816 M69.29950490250937 204.52903226055258 C111.26513626552247 155.948458300865, 153.14272160812234 109.2224883244694, 209.83573465070776 44.36706079253773 M75.8593249626738 207.95640925831842 C125.23953596314661 149.71614800952906, 180.93935550094446 88.21925755917407, 214.62434856592964 51.889467229504504 M73.53002712587016 207.63098330993532 C103.66303773162846 170.66811968837908, 135.57145239654068 135.65740571072354, 213.77163538707532 49.016023552002814 M80.69108105339073 206.58397587549035 C117.59505307319682 162.27706605030662, 158.50260880269016 116.1609576701705, 215.7996696035265 51.782942632159184 M77.82771127594296 208.8819718940509 C110.59188648581647 175.17879599314108, 139.38264205725227 141.7944922392183, 214.29245087902984 50.92691005429748 M83.91809012531246 210.5829822301534 C121.39790410810289 169.06785556821112, 159.61025274115883 122.16898496941447, 218.61866522114832 53.209749199026675 M82.41565905574625 208.95207439982892 C126.1448164915697 159.4426479310624, 171.90736292946585 106.44117193936859, 218.36572798267758 56.966880578661645 M85.02180420793361 210.6145692752956 C121.94806982454297 168.93615504187144, 154.72161321850598 133.97204143193275, 220.45509889252375 59.44971692562383 M89.30993793592012 209.0977529114412 C133.31762869823262 159.19578262009907, 176.618650491265 106.77177475743994, 218.89617843128207 61.026116328434064 M88.88114928513929 208.83049949051508 C139.70339647164957 161.26121792778946, 189.26744912006393 109.4416490335114, 223.7259677288208 59.18229218369166 M91.64806083835825 210.41808492297002 C121.91477146171968 179.26944369157926, 145.24333287135968 150.28565601510897, 220.86869306425487 63.676958922127284 M99.29356864332811 216.24479104300877 C127.22037280487032 176.26272430517477, 157.42353621684174 143.5818598273276, 221.35037433719629 64.57343144047672 M97.97986878879027 214.6391126467093 C133.3995365124382 173.7208379374596, 165.80534803045418 133.83636732482051, 222.89929131968313 68.34509306292648 M103.3092706938375 210.3378256214809 C145.56439150024175 163.09905026975537, 186.04124183112037 116.62630651161588, 230.3986891792144 73.4389168581505 M103.71137857521961 212.48736781720336 C137.9408610684917 169.49877999948387, 176.2015892992914 128.50611283820885, 224.922494784462 68.05928776585951 M105.30668913649899 217.24292375356447 C142.38841214888907 168.67205045837014, 178.13948005682056 132.23014315620404, 225.89349526268754 72.88311855390042 M106.43031344825906 215.712076723804 C146.66914438788478 168.6835767535674, 189.8585083649033 121.10243129420844, 228.64087914218518 71.85036578483253 M113.33927503710603 214.3362863960014 C160.87635732365578 167.76533153390088, 206.78414079512908 114.95769206422285, 230.37709781643775 79.90183497513678 M110.54199214948332 214.69401795997186 C156.66726285253438 162.58332642562206, 199.86309506785295 113.67492740373793, 230.73182042245594 78.71675007897463 M112.66808362448069 215.39496199620208 C160.31317926685122 165.45445429137956, 199.00771376747633 115.30426062399054, 232.69258331928705 80.50258331926989 M116.6144157084957 216.79098948483608 C144.3552758131569 187.87765009604658, 168.31437337652247 162.19352286792508, 231.44105402987753 83.93225423241483 M123.16706943542587 214.6982985911311 C139.77291294515612 194.5481491883646, 166.9107492285379 166.97089252868028, 232.07699658702887 91.31547079304163 M120.59606258788037 213.62676072208 C147.46386221321032 188.17084909116807, 169.37344146683748 159.54028191920926, 230.48835183102466 89.84445371361379 M127.47990922775418 213.16707254797603 C164.61424446028468 170.59660698783296, 196.2411563819893 129.67118036552284, 233.00604562747583 95.24174251363955 M129.78521159623116 212.41770130060996 C153.7645094521944 188.6519886825114, 176.35854049625402 160.59101030767994, 231.72472700949118 92.7107337764778 M133.1450019802876 214.23848856414713 C155.76933960115556 187.36165053975716, 174.88729770916495 165.57577006401812, 232.63121969844036 103.81936234825118 M134.76744188815132 211.03528105455496 C168.50510803583782 174.99135060073786, 202.26008514945454 134.93827584219488, 230.38205212387078 98.25137029991312 M144.03258695083855 214.2317605068319 C177.57031781151557 170.75361019414774, 212.670604401371 130.40271562303968, 234.90478930773497 105.09801291406393 M140.66525102223454 209.55915086282124 C166.83009688774348 182.39583831923886, 193.4316870926334 154.21357137249166, 233.01055910775722 104.71202978782594 M149.8136846472196 206.97782099321785 C172.355779042206 179.85069336686496, 188.01505602937866 153.24990021983731, 236.70480621317213 111.51409557826537 M146.4194959320746 210.09435222931506 C174.51536527976853 177.68966351987916, 201.45995187219904 146.02119232910587, 231.4163392697442 111.92626936912256 M152.0850968272432 207.6943213904925 C175.38421926161038 175.05960070425243, 208.22819081233646 143.90578586868168, 233.3040443935739 116.52044003826578 M154.72689292626524 209.8338172829427 C182.31579967655543 172.4395043711292, 211.32646460418556 142.1181203007134, 233.94278426443506 117.13274637793202 M161.18228844074088 210.37005097628884 C174.51622571349074 182.51980079414355, 197.6044346155934 166.6325952241892, 228.49500004877171 126.46130432169815 M158.6653996304192 209.63028793805591 C186.85112164287764 179.08593350767063, 211.4767582468017 149.06452123004792, 231.4080860924425 128.03771835360607 M166.83315500643965 201.8287123957894 C181.98479155840562 186.7751120561014, 188.22444497077333 175.91065853217387, 227.99518674455905 136.67382688530446 M168.16048236404475 205.24759135155597 C182.2576653466372 186.16198141051765, 197.9998676559423 168.94032902303206, 228.32303224534118 134.10399513960542 M175.22548785820908 201.22637074751844 C191.3252613936969 179.2997406487258, 209.33950183205152 155.65935564092308, 222.9478992967295 142.3818649358267 M176.86508138679272 198.04558900868585 C198.21253211729146 179.1616411675331, 214.59918802749982 156.86179781754385, 226.204269589706 142.63227720439082 M192.25315472487105 196.83226197888612 C195.45245685898678 185.64201568566529, 208.2863684553862 177.13114649908906, 224.76691862612404 154.34454233112064 M189.21829147826625 192.9484851185745 C199.82211708304771 180.46580374135345, 210.3101302181881 167.73494842195993, 220.23150922215916 153.59720354253676" style="stroke: rgb(206, 212, 218); stroke-width: 0.5; fill: none;"></path><path d="M20.9991335901515 44.23859900526081 C27.0505426652851 33.902276707435156, 40.59965331530912 25.624039041745586, 52.9035421181097 18.88692827441244 C65.20743092091027 12.149817507079295, 80.95307697195825 6.397113812351597, 94.82246640695496 3.8159344012619414 C108.69185584195166 1.2347549901722865, 122.14754092553251 1.4909500962420854, 136.11987872808996 3.399851807874512 C150.09221653064742 5.308753519506939, 166.71165873361664 8.650325231218147, 178.65649322229967 15.269344671056501 C190.6013277109827 21.888364110894855, 199.34547256333778 33.03289121328061, 207.78888566018816 43.113968446904636 C216.23229875703854 53.195045680528665, 225.2358418206426 63.53172019950013, 229.316971803402 75.75580807280066 C233.3981017861614 87.9798959461012, 233.58051116803006 103.35053960266374, 232.27566555674457 116.45849568670783 C230.97081994545908 129.5664517707519, 227.56236032642596 142.77279383272003, 221.48789813568914 154.4035445770652 C215.4134359449523 166.03429532141035, 206.71168074930944 177.37243306767795, 195.82889241232354 186.2430001527789 C184.94610407533764 195.11356723787986, 169.6325205581135 202.89947068952637, 156.19116811377367 207.626947087671 C142.74981566943384 212.35442348581563, 129.11061970599997 214.73890705506628, 115.1807777462846 214.60785854164664 C101.25093578656923 214.476810028227, 85.65953598143108 211.85440700086366, 72.61211635548143 206.8406560071531 C59.56469672953179 201.8269050134425, 46.92621555610238 193.81972200664472, 36.896259990586756 184.52535257938314 C26.866304425071135 175.23098315212155, 18.39652930419479 162.90784688578464, 12.43238296238772 151.07443944358363 C6.46823662058065 139.24103200138262, 2.1792035214953573 125.9123469765551, 1.1113819397443336 113.52490792617712 C0.043560357993309706 101.13746887579914, 0.2737907778013122 90.78415884837426, 6.025453471881576 76.74980514131576 C11.77711616596184 62.71545143425727, 27.973116371718444 39.0727369012838, 35.62135810422592 29.318785683826164 C43.2695998367334 19.56483446636853, 50.252082115644846 17.16643602579314, 51.91490386692644 18.226097836569963 M169.27849986504145 11.197261657763875 C182.91385999980974 15.864608858814595, 197.74947150137365 27.404061340151635, 206.99958276892326 37.16629049356136 C216.24969403647287 46.92851964697109, 220.50663514959263 57.41187826299076, 224.7791674703392 69.77063657822224 C229.05169979108575 82.12939489345372, 232.5848928617854 97.94275309451561, 232.63477669340256 111.31884038495024 C232.68466052501972 124.69492767538486, 230.94040737281074 138.24112226395795, 225.07847046004224 150.02716032082998 C219.21653354727374 161.813198377702, 207.47148552702603 172.6374398079794, 197.46315521679156 182.0350687261824 C187.4548249065571 191.4326976443854, 177.16066885528485 201.57506071169695, 165.02848859863542 206.4129338300479 C152.89630834198599 211.25080694839886, 138.92589371482188 210.56046976476546, 124.67007367689493 211.06230743628805 C110.41425363896798 211.56414510781065, 93.2311106821938 212.9451514516682, 79.4935683710737 209.4239598591834 C65.75602605995361 205.90276826669862, 53.53972652399339 198.4704752586417, 42.24481981017435 189.93515788137933 C30.94991309635531 181.39984050411695, 18.715778152977624 169.5394569307409, 11.724128088159475 158.21205559560923 C4.732478023341325 146.88465426047756, 1.4849129438237416 135.21669640811328, 0.29491942126544757 121.97074987058934 C-0.8950741012928465 108.7248033330654, 1.059051450132808 90.99505506050397, 4.58416695280971 78.73637637046556 C8.109282455486612 66.47769768042716, 14.006170770498343 58.39961051561885, 21.445612437326858 48.418677730358894 C28.885054104155373 38.437744945098935, 37.41304535804305 26.521733573413236, 49.2208169537808 18.85077965890582 C61.028588549518545 11.179825744398407, 78.34862308519219 5.585710652588082, 92.29224201175336 2.3929542433144064 C106.23586093831453 -0.7998021659592687, 119.40231575307966 -1.9443539379346622, 132.88253051314783 -0.3057587967362281 C146.36274527321598 1.332836344462206, 167.14634630065376 9.456596560992205, 173.17353057216232 12.224525090505011 C179.20071484367088 14.992453620017818, 170.52190519744096 14.894281255211043, 169.04563614219913 16.301812380340607" style="stroke: rgb(0, 0, 0); stroke-width: 1; fill: none;"></path></g><g stroke-opacity="0.5" fill-opacity="0.5" transform="translate(134.07115398749056 778.368520395086)"><path d="M0 0 C0 0, 0 0, 0 0 M0 0 C0 0, 0 0, 0 0 M2.939360924269936 23.851532621025203 C7.778412115004113 16.225068041986706, 10.511497404714618 12.821579796529582, 22.030519863868022 1.021570568361831 M-0.2994148803689267 24.904666898488163 C8.559161600723883 15.137503251499602, 14.842915797957012 5.289287545105974, 20.144503897333408 1.144849975982261 M3.647419614717286 49.89303437308304 C17.72968579760559 35.72090897463492, 32.60887471812119 11.07734433793302, 46.21491200904899 3.6120323937713152 M0.9878021162002497 47.49676345721714 C14.47922738847702 35.00686700612205, 28.418807416429193 18.640936514246008, 41.333759304690886 1.4898403238832003 M2.7746904103270182 76.34196643749623 C19.085353969102353 45.78748849448333, 39.62493917643077 25.858505562376344, 61.24351191790183 -1.0445455757410755 M1.4159566817989955 72.90615666130928 C23.24551453198598 49.636055754770524, 42.657600388262246 26.64386242004526, 65.53767840833743 -1.333885758879923 M-0.4020775593818797 97.91575578721032 C15.860715115278161 79.67621909498008, 43.408866026648326 57.43181076697439, 82.17393677792654 1.2910944723246587 M-0.3636903353037013 98.90544926496014 C33.887211018357334 61.24605928306344, 65.45618652851422 23.07116793678162, 84.73526511452303 -0.8287696785571086 M-0.26314904892839763 118.09424107427975 C25.41380228692053 89.61449291330327, 55.97795358790236 59.53422310754077, 106.78255377662313 1.639460350468518 M0.31498302912316944 121.10778070147416 C25.111343499967607 93.7937807339047, 47.28984171889149 64.2303045011404, 104.7961483294977 -0.1378778413983568 M-2.4382158998030405 143.4026396914273 C30.476556770682492 108.18698802087583, 69.42431860138939 63.513633734594606, 125.90842107250108 -2.442980548586725 M0.04054665233910271 147.7497941448241 C45.6168535605532 95.75581666104308, 86.54941186593575 47.036742648972705, 127.32452293052091 2.2098079265691055 M9.280778766565476 156.64072107622601 C56.39912671137761 110.4568188734606, 93.41730908802661 59.24179077089647, 145.427543971187 2.7947845145426644 M11.61300919371151 157.3323786425024 C47.5361066558916 116.86757504303598, 87.62494569538107 72.81005228154254, 146.9400287466166 -1.050401522637264 M33.9853345034903 157.39012796905303 C77.45542591994806 100.78931823478118, 125.27727238604527 48.010717617045074, 167.77715267726467 2.1859021837246484 M34.06965591168816 156.21977988804525 C68.44145911099922 121.45104699009883, 98.91741075163088 81.30130464026213, 169.09980759437232 -0.629469312439846 M56.12695621824266 155.57108497549686 C98.27550807194127 99.4283892090965, 149.36519792860966 47.54691706716506, 186.64387881297688 5.752987191224976 M55.77300533814101 158.7144635887037 C97.92868912762167 109.06932605738184, 142.6100029715705 55.83090987427923, 187.1429706390949 6.910493734274758 M71.53982710934446 153.40709114562557 C116.82149024399581 107.69118786532073, 164.04230253284408 58.7719977095221, 187.92939319508292 31.675252999216113 M74.61082713402078 157.64928229641006 C105.58177021229747 127.42592572109206, 130.27074779712407 99.3414259619292, 183.27629453735568 29.94994584754089 M97.34043019202544 156.11571703353508 C117.12946617153506 131.68890180160545, 141.86970998409055 104.45665549050591, 185.16698503561452 57.43134448745743 M98.40603957262827 158.14612811306102 C117.28232622491123 132.0434207286277, 139.2352395131117 109.95489450087958, 183.66027490861848 55.02680426159397 M120.07899103837826 158.98355312652268 C137.98374186188977 132.2049140010284, 152.4436693442679 109.52925093264875, 185.98628029832747 76.97342607349964 M116.4190407075248 157.5211324990479 C142.7297807634742 128.5394056975103, 164.73461644889574 101.07578248249337, 184.27639510342982 79.10518316895576 M137.813126835903 153.2498572370884 C152.69969725622934 140.22743982468683, 163.53747292369783 127.53098946068468, 183.22576422870287 106.0625864093972 M141.12883444496043 157.7718540481207 C150.07223676530865 146.79028726452933, 160.02093827012612 133.9959627580902, 185.4314020860208 102.40759700293071 M163.31920477209957 154.9351371777323 C165.9182090071402 149.713349396775, 174.0912943237379 140.89867132263436, 185.4744949852501 128.5052928878729 M158.90504969118507 155.25522635402947 C166.9909955570756 149.7486839492356, 174.72432268961515 138.21727882375217, 185.85449073365078 127.28006393749163" style="stroke: rgb(134, 142, 150); stroke-width: 2; fill: none;"></path><path d="M1.3333799540996552 3.5837643444538116 C47.16719218667273 5.135630909632612, 93.95629616729268 4.483949963282514, 175.7906104705848 -2.5988175570964813 M-0.05196557939052582 -0.43048276007175446 C55.593361159959635 -3.7197038915845657, 110.52007522841136 -1.2171895292493606, 176.21983202617542 0.3548923581838608 M175.97451702576058 2.7545073330402374 C181.23359736661155 40.63864698581822, 178.42621764401633 74.37657692179933, 177.20179192047493 143.33415688289983 M178.66175326030628 -1.6652149111032486 C176.16807922988264 28.74170491275015, 177.0983422723326 59.56816514187699, 177.58877285640614 147.29091521813257 M174.5334035537757 145.55930794491155 C114.9982696412118 147.6784339947151, 58.29928685169476 143.08845959133376, 0.26802751421928406 148.7493456722675 M177.7205134264745 146.53997298790796 C121.06455168461466 150.47234999232595, 66.14017258435636 152.12028061442678, 1.2544151693582535 146.66784688546045 M0.005156725645065308 147.71351040615423 C1.9785804135488578 100.27964094884089, 4.428830085484893 46.72495239973067, 2.8178198039531708 2.979756623506546 M1.6345688253641129 145.06497594429834 C2.63670382612235 88.04056756804275, 2.050945140056676 30.782379284560605, -1.3927267640829086 -0.31362904608249664" style="stroke: rgb(0, 0, 0); stroke-width: 4; fill: none;"></path></g><g><g transform="translate(335.16559567832616 859.8833283481265)"><path d="M0.09575886204838735 2.376029937714338 C53.74181898551437 3.1527004687544093, 268.33989140477047 2.8735865307631023, 322.2763346764298 3.0018701701202306 M-1.6527895626425746 -0.04497831970453259 C51.29345397623632 1.0853376075681433, 265.83337599437704 8.574878093926303, 320.0267408101114 8.85634911153101" style="stroke: rgb(0, 0, 0); stroke-width: 4; fill: none;"></path></g><g transform="translate(335.16559567832616 859.8833283481265)"><path d="M295.0115551857197 18.12496450615813 C296.9001581020071 17.130723336402674, 306.034352666782 14.592185710857823, 321.94753113223635 7.325988405380478 M292.06731377001046 16.647586804607407 C301.9635005932285 14.121839385048855, 310.34540587152037 11.300643567564773, 320.4319025447818 10.418443386439314" style="stroke: rgb(0, 0, 0); stroke-width: 4; fill: none;"></path></g><g transform="translate(335.16559567832616 859.8833283481265)"><path d="M295.46264965148055 -2.3912855451743216 C296.96648699913857 3.062727033899393, 305.9589094374419 6.972134612235727, 321.94753113223635 7.325988405380478 M292.5184082357713 -3.8686632467250437 C302.0414752387201 -0.2541664817661262, 310.28852184096655 3.058151918604459, 320.4319025447818 10.418443386439314" style="stroke: rgb(0, 0, 0); stroke-width: 4; fill: none;"></path></g></g><g transform="translate(367.7360182135374 798.4467086298166)"><text x="0" y="32" font-family="Virgil" font-size="28px" fill="#000000">HTTP Requests</text></g><g stroke-opacity="0.5" fill-opacity="0.5" transform="translate(670.4627627274685 808.5522285645814)"><path d="M0 0 C0 0, 0 0, 0 0 M0 0 C0 0, 0 0, 0 0 M-1.9404276607372548 23.576745738922714 C8.277766390950942 18.716490654966538, 13.695372245855225 4.803807727316904, 20.912948562109733 -1.262736606022763 M-1.1174624895491387 24.928524160473703 C7.599107747695727 18.7216625473791, 13.926637203683303 9.410975587233525, 20.133124212080503 -0.16393686698977916 M-1.6149099115283079 47.984472972013876 C16.274226816651165 36.76383635685524, 30.30763356966057 14.661872762727079, 39.91504848431401 -1.1001700881541723 M-0.13755404762931533 49.4293792402827 C16.88580886766202 29.65754961729678, 28.989233659158106 12.966663294306969, 41.61642375643902 -2.0144093420029634 M0.9431668056359896 74.86604439685492 C18.460124403909635 56.32005337643044, 28.026179713445135 38.93184392901357, 61.57934170485814 1.7951005923120746 M-1.577861448545157 74.31118681872634 C22.216869555012902 45.10226696955271, 43.81910840250418 22.289662344894694, 62.44349237428386 -0.7879355584712258 M-0.48285658285037414 94.6315139395164 C23.62408321153085 66.72819890424711, 53.139613567728965 39.13009287844571, 88.5872247081171 1.1127727010009778 M-1.3509666174651755 98.09203304843768 C32.2272103761334 61.10851015838205, 65.16807407576508 23.497366967821037, 83.28339744842754 0.06712022579293375 M-3.336965534631389 125.89865970517775 C34.41122166807005 78.85531480331146, 73.582120473894 38.637141440712696, 107.51853147846592 0.01910600353753722 M0.7430658864041391 121.09538451115867 C23.908817242198218 91.39528324200707, 48.603704391910966 66.11251437891829, 107.41848761168254 -1.1983874970229849 M2.8671149056774397 149.02595103968676 C32.2478036909804 105.28277409542068, 65.80591672213073 60.43700813883616, 123.94547447128906 4.161632345769526 M0.5492756668847818 144.60805527929958 C28.469268359193226 116.56403611596198, 57.790031603020964 82.61382950289759, 128.21333371787085 1.9953240954912914 M13.8046952008165 154.82399720746918 C47.18664184128387 119.1164218895153, 82.46185943839491 85.16441371693482, 145.18758100846813 2.6023455121969565 M11.487805189871516 156.94542288210533 C57.993313136329895 103.6625310600364, 108.2351275921448 50.22299414943779, 147.8981129462962 -0.4895347892554668 M31.363083997814126 155.40526447459382 C71.7623628724682 108.35143012766471, 113.83635823019945 67.08051348433168, 170.13155077100836 -1.6742011137112576 M32.34517960626559 158.8428056351779 C86.36262310709726 97.30217736092813, 137.55655763799714 37.21633715103639, 169.56824822130082 -1.3883252470639442 M51.87985441729912 157.79725162994768 C89.37834854104172 113.67249428662863, 127.37635253043676 73.92195748559324, 186.49758939835584 7.212606018992274 M55.11776181595374 158.1406600869827 C97.17507458050592 104.12660183682652, 144.92554765550796 54.76231585104632, 186.9498507620757 4.951654140268854 M75.69199305123851 158.60927231352613 C116.42245909236416 112.92438693758015, 155.4993574280252 67.5535632925819, 185.15675707208135 33.7569595901666 M76.51737423709795 156.5844949346392 C118.04066978115398 107.58538490256905, 160.2456053391628 60.975482339585014, 183.52912519546368 30.338643378615174 M100.2612316453178 154.12266890951975 C112.55550403129746 134.48588894303685, 129.47989172248208 118.52078885286518, 183.62373118914797 59.02492170104281 M98.60968257051898 156.19727929556353 C124.91080811506595 122.99952792396499, 154.09351817769152 92.05002627176849, 185.4645082547529 55.174655516384995 M114.60985103773692 158.12658216811099 C142.53035095091712 132.12051406433017, 161.65070753235034 105.09406188120809, 183.57315793493893 81.14382294536443 M118.29966622742631 157.19560366503276 C134.9834358598578 134.8683104510489, 156.0321971808942 115.22916042075875, 184.68733280385044 79.47892017261 M136.1692477128709 153.56070935492488 C152.45108742708356 137.4616097087076, 170.05588332751282 124.88172277025924, 187.0844893518103 106.58300392831094 M138.88139259063252 155.50610378523442 C149.873423059003 143.33724965940002, 161.3117046067003 132.38619994206928, 183.19831553354987 105.08662267903216 M158.2692556550947 156.84131023558646 C166.83219404601286 147.97714238342667, 181.10474694504788 135.74746616708933, 187.91743789514646 131.80249649573014 M162.26221029295 156.75463414835602 C168.5503076589248 147.27264407725818, 176.0818962554664 139.79269214685604, 184.76827729767308 126.67129585806177" style="stroke: rgb(134, 142, 150); stroke-width: 2; fill: none;"></path><path d="M3.4139111265540123 0.903989888727665 C65.78769743745842 -4.651427356375532, 135.41175077717142 -5.420572606695966, 175.10013291310446 3.3590053096413612 M1.0696629770100117 1.701563250273466 C47.002495110139144 -0.46872251880514293, 93.91914148277023 2.1827129756177697, 177.35852813418882 -1.645277727395296 M179.6655873961367 -1.5876442417502403 C180.33646843941224 46.13434978572653, 179.79521558792604 97.2189918234572, 177.80672141980307 143.88601895137413 M177.15622996982114 1.2200300805270672 C179.767011034048 55.88389937594518, 179.37834905341904 110.32683284983008, 176.18396961387174 148.03359484015687 M181.31071350049154 149.08774586482627 C134.98804600337718 144.04844669558173, 91.23546975382139 145.37108306147223, 3.312765620648861 145.30248113437278 M179.43574249442594 146.36231207190735 C119.40925105086542 146.96319165570245, 61.19494298743186 147.0156357560824, 0.14974432066082954 147.10130941210969 M-3.0474390760064125 147.86156888766868 C4.300984675130554 103.13181210821725, -0.8860048706915893 50.82769162026972, 2.422109864652157 -2.334723375737667 M-0.25866956636309624 148.5545688801883 C-3.1533482909664046 116.00375780836117, -1.679713213489903 82.39973552437584, -1.9018512479960918 -0.2615920193493366" style="stroke: rgb(0, 0, 0); stroke-width: 4; fill: none;"></path></g><g transform="translate(1340.0469556243547 153.8550681398665)"><path d="M27.707610308538683 24.085858177792844 C27.707610308538683 24.085858177792844, 27.707610308538683 24.085858177792844, 27.707610308538683 24.085858177792844 M27.707610308538683 24.085858177792844 C27.707610308538683 24.085858177792844, 27.707610308538683 24.085858177792844, 27.707610308538683 24.085858177792844 M19.390249844335585 59.58101147485881 C34.18097760716594 45.49928888927996, 44.983217651325454 22.720172540438995, 56.808649092119495 10.664536524981916 M17.90275412394908 60.67509269786983 C26.63905004713397 49.17654037408935, 37.82627008917695 39.9024961300548, 61.05476352493123 10.854322780341565 M11.345184034307756 94.73082858098579 C26.106810618686918 74.8090384973994, 43.23282596734248 56.83430394634436, 81.86073991582352 4.417517413228339 M8.797185307939806 96.28430807365012 C25.812204950589923 79.43960306548207, 41.49791916771493 58.4050136819209, 82.01674929187256 7.146108676522559 M11.399501387768098 110.22327282274705 C40.10893737761057 78.30662967205986, 71.47916252019334 49.71012101814325, 104.40389789926252 12.373855772901123 M15.742354635887452 112.09241279209596 C32.04988587117768 91.37779317740919, 50.90540111602053 68.93297986560928, 106.02857907401761 9.358842376161164 M21.912490074906437 130.85956705459805 C44.57676181865919 102.55058762796776, 65.76140067389179 77.4103915532615, 121.79359179243647 12.365582854000266 M21.908097152981846 126.80883283266277 C49.02407923714263 95.82095443616466, 79.9511287211038 61.65085741185442, 123.44376849636637 12.045258254257377 M32.51991399067532 141.69819462542495 C70.73221761603608 92.66417241285137, 108.44087087734749 46.72910395551443, 142.85270354827895 16.06676284496637 M30.428223629175534 141.71275466923674 C73.38245366461047 94.81903740869222, 117.68523281192071 50.151205796150364, 138.7707463868524 15.9126236242518 M40.51588771113171 151.22444426656426 C68.01293396044868 125.31397534557466, 95.5347572245129 97.27854850838662, 152.12611162688486 27.106522798027143 M42.78239551552548 153.82267015815438 C86.36948367824655 106.8126145859599, 124.38274892961537 58.897608655452956, 152.92743808057062 23.935768663372144 M54.598293189209144 161.23738016645675 C86.31037762173509 125.17108557307841, 114.04525205681355 95.92984108896077, 169.4988160391688 33.89950774117764 M56.54154163996522 159.78334661285643 C79.15132230879901 130.45916793106505, 101.82346594184249 103.54649258139212, 168.8593904634356 32.187541524613465 M73.81124500096458 166.47229105643893 C100.51547307727068 143.15284124835748, 119.98543708816703 118.01224764519657, 173.92175427421614 49.57013514642282 M74.3103234535517 165.48827588967944 C102.73866032993453 134.36699564606354, 130.68267513698768 104.48136755325528, 177.26558789953276 47.76306280498071 M92.60262509933159 162.97824112495144 C129.34690068251177 130.7238376669358, 158.54726299350403 94.6303299157861, 185.71780828496048 66.29246920220328 M94.78466978421852 164.45722530206402 C124.23773878847547 132.97516106030145, 154.52798161605716 102.02204150705474, 184.90445921679566 61.11959981791449 M116.48625291541458 167.51406700444477 C144.5941042360169 140.654128198283, 163.47101048410326 107.81720303263458, 186.9000336184683 81.9315082200784 M114.41394693807007 167.23223460746067 C139.5292635615044 139.41651732099868, 168.18434006924286 105.61924868125985, 188.9121068372908 82.71785399997418 M146.1251319529667 156.03935085912684 C164.28357051597413 140.01538312354467, 173.27057955655675 120.37339187703485, 196.13372543060663 101.6283493269294 M149.4842052938595 153.8685890950773 C161.80238525485734 137.16867481656394, 173.79770609854512 126.25698357699525, 193.76437279188517 98.607125603041" style="stroke: rgb(206, 212, 218); stroke-width: 2; fill: none;"></path><path d="M53.72195357503326 5.370483929948449 C64.71701885696228 0.15981451517346823, 81.81368215779983 -0.455403647307809, 94.96233352292049 0.1864478671515286 C108.11098488804114 0.8282993816108662, 121.12253617387705 4.361833462787831, 132.61386176575718 9.221593016704475 C144.1051873576373 14.081352570621117, 156.06129091176987 21.26230061821667, 163.91028707420128 29.345005190651392 C171.75928323663268 37.42770976308611, 176.45327838136907 47.53895814382904, 179.70783874034555 57.717820451312804 C182.96239909932203 67.89668275879657, 184.44159836939474 79.14546055580978, 183.4376492280602 90.41817903555398 C182.43370008672565 101.69089751529818, 179.8757215998684 115.53970404539, 173.6841438923383 125.35413132977803 C167.49256618480823 135.16855861416607, 157.24272251652442 143.37922958574134, 146.28818298287965 149.3047427418822 C135.33364344923487 155.23025589802305, 120.76351084616964 158.88845886099983, 107.95690669046965 160.9072102666231 C95.15030253476966 162.9259616722464, 81.69555335235111 164.05016950300697, 69.44855804867976 161.41725117562186 C57.2015627450084 158.78433284823674, 43.96410535413185 151.804373204416, 34.47493486844153 145.1097003023125 C24.985764382751206 138.41502740020897, 18.3031470453041 130.82812951508342, 12.513535134537833 121.2492137630008 C6.723923223771565 111.67029801091819, 1.114687048901582 99.20982857565397, -0.26273659615607414 87.63620578981683 C-1.6401602412137304 76.06258300397968, -0.42061831894777146 62.40827471952364, 4.2489932641918955 51.807477047977954 C8.918604847331562 41.20667937643227, 14.151166593694903 32.5136022293526, 27.75493290268193 24.031419760542704 C41.358699211668956 15.549237291732807, 71.54274569484052 4.04660303197611, 85.87159111811405 0.9143822351185662 C100.20043654138759 -2.217838561738977, 113.84573281795984 3.758832824314143, 113.72800544232317 5.238094979397445 M35.55387192906747 19.219840427266845 C43.847442703559075 11.510191831234547, 56.71271143794092 2.708795732499219, 68.72538938522784 -0.23135617315054446 C80.73806733251476 -3.171508078800308, 94.62346833527123 -0.7396235067458199, 107.62993961278902 1.5789289933682653 C120.6364108903068 3.8974814934823505, 136.3674571587274 7.058959477772884, 146.76421705033457 13.679958827533966 C157.16097694194173 20.300958177295048, 163.68287855240038 31.36817766078304, 170.01049896243194 41.304925091934756 C176.3381193724635 51.24167252308647, 182.47006829187004 62.8690091298104, 184.72993951052382 73.30044341444426 C186.9898107291776 83.73187769907813, 187.71757425944853 93.32996318308325, 183.5697262743547 103.89353079973792 C179.4218782892609 114.45709841639258, 169.0354658071275 127.55178295029921, 159.84285159996085 136.68184911437226 C150.6502373927942 145.8119152784453, 139.7025495185778 154.42134715728173, 128.41404103135483 158.67392778417621 C117.12553254413186 162.9265084110707, 104.21922889072101 162.89034445033198, 92.11180067662306 162.1973328757392 C80.00437246252511 161.5043213011464, 67.44425484966968 158.70745805382086, 55.7694717467671 154.5158583366195 C44.09468864386453 150.32425861941812, 30.46643066216837 144.77593277041814, 22.063102059207637 137.04773457253103 C13.659773456246901 129.31953637464392, 9.408716219027358 119.07395221080255, 5.349500129002692 108.14666914929691 C1.290284038978025 97.21938608779128, -3.625993622326014 83.15175976738065, -2.292194480940367 71.48403620349724 C-0.9583953395547198 59.816312639613834, 7.195331639745692 46.98570542583491, 13.352294977316575 38.14032776599646 C19.509258314887457 29.294950106158012, 30.14349657947446 21.5885402481306, 34.64958554448493 18.411770244466553 C39.1556745094954 15.235000240802504, 39.09271599023388 18.70457118458654, 40.38882876737939 19.079707744012175" style="stroke: rgb(0, 0, 0); stroke-width: 4; fill: none;"></path></g><g transform="translate(694.8991596638654 855.18692719928)"><text x="0" y="32" font-family="Virgil" font-size="28px" fill="#000000">Express</text></g><g transform="translate(1384.0170278637775 185.13680188599665)"><text x="0" y="32" font-family="Virgil" font-size="28px" fill="#000000">Mongoose</text></g><g transform="translate(509.3039215686273 11.961363289505243)"></g><g transform="translate(510.9705882352941 891.9613632895054)"></g><g transform="translate(10 836.0397946620546)"><text x="0" y="42" font-family="Virgil" font-size="36px" fill="#000000">Client</text></g><g><g transform="translate(1441.6568627450977 324.70646132872105)"><path d="M-1.6206092584878204 -2.029516465589404 C-0.456204645669235 71.17822863838691, 7.242200330218804 363.2822053487906, 9.414611102501908 436.48860729785974 M3.7715670262277126 3.8719230379164227 C5.53291892835421 77.09560365745543, 9.765202333178255 366.7918902044057, 10.92088483222858 438.62781493405214" style="stroke: rgb(0, 0, 0); stroke-width: 4; fill: none;"></path></g><g transform="translate(1441.6568627450977 324.70646132872105)"><path d="M-2.6719236806973736 410.04222485801694 C5.517045877226172 423.8616392008832, 10.681427622389236 432.72794131459, 10.25952484780089 442.1200066250037 M0.644857987295099 410.41012052266416 C4.936856372598935 423.2384622864634, 6.812253082037598 433.03124362771734, 10.4979900060697 437.07166141869834" style="stroke: rgb(0, 0, 0); stroke-width: 4; fill: none;"></path></g><g transform="translate(1441.6568627450977 324.70646132872105)"><path d="M17.84685166547095 409.72621745412596 C18.094558217580936 423.4303176067569, 15.323901994287118 432.41882636807713, 10.25952484780089 442.1200066250037 M21.163633333463423 410.0941131187732 C17.462579549166154 423.3622625085561, 11.343289974831618 433.27816913457167, 10.4979900060697 437.07166141869834" style="stroke: rgb(0, 0, 0); stroke-width: 4; fill: none;"></path></g></g><g transform="translate(169.54901960784304 782.4809711326426)"><text x="0" y="42" font-family="Virgil" font-size="36px" fill="#000000">React</text></g><g transform="translate(166.62745098039198 866.7946966228386)"><text x="0" y="42" font-family="Virgil" font-size="36px" fill="#000000">Redux</text></g><g transform="translate(206.62745098039198 821.6966574071523)"><text x="0" y="42" font-family="Virgil" font-size="36px" fill="#000000">+</text></g><g transform="translate(684.2030812324928 817.091689104042)"><text x="0" y="32" font-family="Virgil" font-size="28px" fill="#000000">Node JS /</text></g><g transform="translate(1481.7450980392155 435.42214760323066)"><text x="0" y="42" font-family="Virgil" font-size="36px" fill="#000000">Model Injection</text></g><g transform="translate(1301.9961300309599 781.5692064267603)"><path d="M0 0 C0 0, 0 0, 0 0 M0 0 C0 0, 0 0, 0 0 M1.4069905096850608 22.799250194518923 C4.75221991119477 14.043458211667541, 10.82071098972016 11.136359138856356, 21.17985552018311 2.6030365539878133 M-0.7171654643305327 23.666228487803696 C4.95457726249413 18.026495772351435, 10.273408817765871 11.703586149040436, 22.04541470510688 0.010452009195041967 M0.5191435385494643 52.87856167615287 C6.884462956007241 38.145386584632604, 18.198262129730228 22.722255589696058, 43.70782946105652 0.23035824935426774 M-0.17556806281216808 50.45485234879784 C7.477115239524055 40.0640083652746, 19.41344066739474 30.230306638805537, 41.580189357135225 0.9149018645613438 M1.3645994013360152 73.83887143278865 C22.412729321302756 49.727478001483576, 38.48214229521183 30.339277823083442, 67.51092318342407 -2.8353475516171684 M-0.2510611226597419 72.28971763359753 C16.669482830619025 55.17692781820055, 32.23713846912119 38.26062030264343, 64.47627496802588 -0.339353037762784 M-1.1796730458737983 98.60402733580932 C36.389046764710805 59.295016888018424, 67.37157295759799 20.03334609847053, 82.75087985134826 2.9101916120110047 M0.7971547786144839 98.05994320967957 C24.14216408705631 73.61379581035587, 46.91522720433836 46.94867135741241, 85.64401089324758 1.2387151342539084 M2.453937418963534 122.57513268570682 C24.486273579908712 92.87878380285403, 52.60912981236098 66.83318029355107, 105.28084887889159 0.8423419511762873 M0.3946620544602695 123.29401274862965 C34.135585757582675 84.92913541561694, 64.21459438931146 49.502106257472676, 105.24178336326909 -0.8891626623573288 M-2.131610761098983 140.77909411319587 C28.207632548572235 118.21392733984274, 56.92149457307972 87.40447684519782, 128.61432690112605 -1.6627269929610478 M1.0590309643368698 144.24582262725625 C39.89465586439906 96.17727557831, 81.06161041792207 50.30909799736787, 126.70746645456865 0.27665723465752734 M21.69664088973537 144.1117533329764 C67.44494146045372 95.49028375962614, 110.38688510769704 43.049191692330226, 147.17439389009516 -2.8718806699090464 M23.456972425447255 145.07531368135304 C50.37350786308177 113.73678884166452, 74.2465901438658 86.12379271817335, 148.07015820559602 0.5673928718841807 M46.46163341581386 140.86320146266902 C91.33551680812573 94.76110006783782, 135.32240438848604 38.38734505322142, 168.9823589808709 -0.7917620385074429 M43.32682054854494 144.31128552463437 C80.97203324897418 100.37407212591829, 119.8096879646456 58.443833241106745, 168.70132644282944 1.4865941615766474 M62.93448498119898 147.67833596321125 C93.32568086518755 114.14655277835473, 121.31032529008283 84.77683420399349, 190.90699658751583 1.18737011218127 M63.89922718909867 144.74945348913153 C103.66377047118516 96.60131355033664, 143.62641294268232 51.30304275725648, 192.6265448967377 1.5038045607661843 M89.07771999995326 145.57314804554062 C116.36461405099907 109.53095983462573, 147.8130368421585 69.3684957431469, 214.63348737409234 -3.5786492569053934 M84.90289107757722 142.40623603187578 C120.49671232464084 108.71114613060276, 153.2020029401477 70.9241597521447, 210.55693417278945 1.1217706514840557 M106.67026913613917 145.30972267059457 C144.72802246436717 101.73995537840918, 190.99687478813473 53.47767009519741, 235.28841825466304 -3.6128914348299475 M109.25205781944932 142.83125473489832 C154.1837793255903 87.91449868869312, 204.2198241591137 28.60435251212533, 232.57666175145357 1.1889421407614975 M129.2764102748287 145.5259481295334 C172.73437119201964 97.71264170714062, 216.70175833120052 43.63095269487977, 258.06478239329033 0.05766603934509362 M127.0779608661932 144.1745438854532 C180.06852131894422 87.26368312885808, 227.94118791265822 30.82980723240324, 254.8304419881987 -0.7880281393702546 M149.4950046380654 147.09167772284906 C196.2307993774224 93.38706411645822, 234.2452450431556 39.39379576749154, 278.8469792040368 -0.7228606234427559 M149.04055763125868 146.48021215512614 C188.46064872921795 101.85933961505177, 229.75245017927418 52.29287239234067, 276.21103611349366 -0.33178423187993644 M171.6481426109212 147.01198724170186 C195.86139005191018 116.72192246002703, 219.03605644259716 82.34836424988133, 292.9631060030788 5.1922535004173085 M171.0796753161239 146.52720008117117 C192.67781510744427 117.96616542840026, 218.46429901948733 88.88403498659244, 289.17404388492105 7.374747907937007 M191.0303798574587 144.78333664702924 C217.64803837658644 114.15011267949282, 243.44768967144265 84.09042053185664, 285.6508434435643 34.30669834386765 M191.72674702625775 143.1229417456195 C214.3843350669744 118.28829129229898, 233.60520161298777 96.80905965961105, 290.26628902203515 34.48021670911669 M213.87767829174032 148.52327964976874 C242.48513116102902 119.81796609775235, 264.9239151965015 84.10347534587186, 291.05210832734696 56.724260602944824 M212.13625274212887 144.1705743555024 C241.85837140477264 115.61056979013577, 267.4877227561557 84.17534951655404, 289.18297201809577 59.64547673878941 M233.99240607782855 144.34546371085784 C255.06834586088058 127.92005058122245, 273.54902775704113 104.22842073694042, 288.7548070105082 83.03285064903189 M234.77321931920602 142.9814382428511 C250.73614287673607 122.41380217377036, 267.8353067435326 103.3437295991199, 289.3719235455907 83.86511561443199 M253.36833762978597 141.73463004123406 C265.9945157413682 136.06962924652336, 274.76363256961486 121.12987354870658, 286.7874882150917 104.54763428262079 M256.10072048795803 144.5875768646969 C263.13156382188305 135.36156052160683, 270.400563288854 128.36843244243042, 289.0907572679697 105.64808575763011 M275.0664904009104 143.0642667873366 C284.79216215411526 142.91129398210657, 281.8414106029663 135.00448757452807, 289.6000452461382 128.24843711666884 M277.27304131887115 145.88362766844912 C280.06328656712077 139.28151576152945, 284.1032635231199 136.83316824020153, 289.4650693756258 132.42819161135824" style="stroke: rgb(206, 212, 218); stroke-width: 2; fill: none;"></path><path d="M-0.7152852733983348 2.315644494857071 C67.32702632945518 -0.2012262334609296, 141.11144371959892 -1.1056000049964243, 275.88896384065123 -2.406132946085005 M0.018186871572129205 0.9596470700137655 C57.239546632788404 -2.8886310667390442, 117.21164450889371 -3.7761173010928597, 277.43776115649564 1.323037120492357 M275.87930563055716 1.177778895944357 C276.7194333093643 30.83635358939714, 277.0459407585144 61.24120132362141, 274.9954246576949 142.4965927645418 M278.55174975991986 -1.2716526370495558 C277.3071430385406 54.02883935909645, 275.8042410672004 103.68559546962234, 278.70619081855557 144.88994366934924 M280.7995868606487 143.3105230745967 C194.9529875815945 144.68878937848268, 112.51165072766949 145.27739169304175, 1.8428591633401417 144.3477449645486 M278.06604148283174 142.4042996503049 C195.8064770595739 146.06020861837487, 114.82029172939039 145.4726304675607, -0.531451507682303 142.21005604009721 M1.1942721642553806 143.8488956734392 C-2.660667878849541 91.12860027916145, -5.501434904797112 41.047888472530175, 1.2695052661001682 0.288699921220541 M0.3004284184426069 145.1174415450397 C2.982521077800615 101.03790050766924, 1.3152705041655137 58.83867143624114, -1.206145079806447 -1.8291473370045424" style="stroke: rgb(0, 0, 0); stroke-width: 4; fill: none;"></path></g><g transform="translate(1324.7902476780187 786.4025397600938)"><text x="0" y="42" font-family="Virgil" font-size="36px" fill="#000000">Backend DB</text></g><g transform="translate(1349.1431888544894 837.3829319169565)"><text x="0" y="42" font-family="Virgil" font-size="36px" fill="#000000">services</text></g><g><g transform="translate(1294.1529927760575 865.8829319169561)"><path d="M-2.2454594817012548 -2.5746412012726068 C-77.48249271196235 -2.8174638400304803, -373.96677232544164 -1.2590782557072695, -448.7250344731425 -1.009641296686823 M2.8177410109341148 4.296338800638914 C-71.97389183903344 3.121939977449328, -371.6837680179182 -4.091483128457512, -446.3693622021143 -4.433446496324832" style="stroke: rgb(0, 0, 0); stroke-width: 4; fill: none;"></path></g><g transform="translate(1294.1529927760575 865.8829319169561)"><path d="M-421.6993815064404 -13.83039972048302 C-427.8662820011859 -13.351162296097861, -439.19906756500137 -4.719683784160169, -443.9499673476581 -1.8244270417562074 M-416.2973486896578 -12.30430080790122 C-429.54516621964643 -11.061884906096285, -441.4793948299166 -6.486407705819686, -446.3470625268434 -4.00582149398535" style="stroke: rgb(0, 0, 0); stroke-width: 4; fill: none;"></path></g><g transform="translate(1294.1529927760575 865.8829319169561)"><path d="M-422.0208204822427 6.68829125556792 C-428.1258823465899 -0.9594335281550768, -439.33127286317415 -0.4600727828684228, -443.9499673476581 -1.8244270417562074 M-416.6187876654601 8.214390168149722 C-429.98996293604085 1.2642477081849472, -441.79579201227926 -2.356513129231681, -446.3470625268434 -4.00582149398535" style="stroke: rgb(0, 0, 0); stroke-width: 4; fill: none;"></path></g></g><g transform="translate(913.3490712074299 782.4809711326423)"><text x="0" y="42" font-family="Virgil" font-size="36px" fill="#000000">Service Integration</text></g><g transform="translate(1698.205452265448 1132.5215434869401)"><text x="0" y="42" font-family="Virgil" font-size="36px" fill="#000000">Mongo DB</text></g><g transform="translate(1743.7610078210034 1201.0400620054588)"><text x="0" y="42" font-family="Virgil" font-size="36px" fill="#000000">Atlas</text></g><g><g transform="translate(1393.2610078210034 931.3919138573106)"><path d="M-2.5241545416414737 1.3361204244196419 C0.3247164207016189 36.05054121897727, -29.80136446228916 160.81505318479952, 15.483821975329374 209.55575631103574 C60.76900841294791 258.29645943727195, 227.45203654665798 279.78453880060033, 269.18696408406976 293.78033918183695 M0.1129677316546438 1.2253747013211251 C2.013034654042597 36.326649488023016, -29.59721894667839 164.3499038991552, 15.43702228684113 213.04799329496083 C60.471263520360644 261.74608269076646, 227.4308692109987 280.3360791921945, 270.31841513277175 293.4139110761548" style="stroke: rgb(0, 0, 0); stroke-width: 1; fill: none;"></path></g><g transform="translate(1393.2610078210034 931.3919138573106)"><path d="M242.51855209198715 298.5408104348085 C245.5550272404084 298.0640459691004, 254.0332105251037 292.347337418429, 269.01286392421605 297.1515228840376 M240.89786764335753 298.48179063453296 C252.03171760200146 295.45246943359274, 263.7539497940179 293.0863569469696, 271.67202030257465 293.28906263214003" style="stroke: rgb(0, 0, 0); stroke-width: 1; fill: none;"></path></g><g transform="translate(1393.2610078210034 931.3919138573106)"><path d="M246.78786616352264 278.4686167394391 C248.97091503914544 282.78281229366934, 256.413698755405 281.93403810938895, 269.01286392421605 297.1515228840376 M245.16718171489302 278.4095969391635 C254.789563947582 282.56002113569673, 264.98983068127734 287.3494340953654, 271.67202030257465 293.28906263214003" style="stroke: rgb(0, 0, 0); stroke-width: 1; fill: none;"></path></g></g><g transform="translate(1401.3720330237356 241.68994946081597)"><text x="0" y="32" font-family="Virgil" font-size="28px" fill="#000000">Models</text></g></svg>